<?xml version="1.0" encoding="UTF-8" standalone="no"?>
<svg
   xmlns:dc="http://purl.org/dc/elements/1.1/"
   xmlns:cc="http://creativecommons.org/ns#"
   xmlns:rdf="http://www.w3.org/1999/02/22-rdf-syntax-ns#"
   xmlns:svg="http://www.w3.org/2000/svg"
   xmlns="http://www.w3.org/2000/svg"
   id="svg4574"
   version="1.1"
   viewBox="0 0 194.99998 40.502426"
   height="40.502426mm"
   width="194.99998mm">
  <defs
     id="defs4568" />
  <metadata
     id="metadata4571">
    <rdf:RDF>
      <cc:Work
         rdf:about="">
        <dc:format>image/svg+xml</dc:format>
        <dc:type
           rdf:resource="http://purl.org/dc/dcmitype/StillImage" />
        <dc:title></dc:title>
      </cc:Work>
    </rdf:RDF>
  </metadata>
  <g
     transform="translate(1.494047,-20.480931)"
     id="layer1">
    <g
       transform="matrix(0.26458333,0,0,0.26458333,-8.9940467,10.732145)"
       id="g4507">
      <path
         id="path4489"
         d="m 283.67316,123.14377 c 6.35336,0 10.89312,1.32023 13.62268,3.94838 2.44442,2.3613 3.67492,6.17625 3.67492,11.44336 0,6.36314 -1.70398,11.08491 -5.11291,14.16612 -3.40576,3.09589 -8.19922,4.64265 -14.37631,4.64265 H 270.3175 v -34.20051 z m 14.29971,63.8967 c 17.70935,0 31.73547,-5.80552 42.09998,-17.42665 8.44784,-9.44201 12.66879,-19.8303 12.66879,-31.18306 0,-17.24162 -4.49607,-29.76046 -13.48584,-37.56833 -8.45612,-7.349902 -21.39426,-11.029079 -38.82868,-11.029079 h -79.29687 v 97.207119 z"
         class="st1"
         style="fill:#dd0000" />
      <path
         id="path4491"
         d="M 367.14914,187.04047 V 89.833351 H 476.9635 v 30.717519 h -60.62961 v 9.37285 h 60.62961 v 22.52759 h -60.62961 v 9.17331 h 60.62961 v 25.41585 z"
         class="st1"
         style="fill:#dd0000" />
      <path
         id="path4493"
         d="m 561.97711,118.38979 c 4.54151,0 7.81281,0.77338 9.81433,2.30614 1.98987,1.54018 2.99616,4.02412 2.99616,7.45365 0,3.07547 -1.0542,5.49025 -3.13953,7.2504 -2.08215,1.75827 -5.3172,2.64787 -9.67096,2.64787 h -15.80682 v -19.65806 z m -15.80682,68.65068 V 164.7701 h 32.70587 c 14.61096,0 26.01465,-3.95429 34.19311,-11.85509 7.25611,-6.99417 10.89985,-15.94196 10.89985,-26.84167 0,-9.89423 -2.2287,-17.75304 -6.67957,-23.56445 -6.45392,-8.444628 -17.48047,-12.675539 -33.10614,-12.675539 h -87.19617 v 97.207119 z"
         class="st1"
         style="fill:#dd0000" />
      <path
         id="path4495"
         d="m 685.43878,154.98636 c -2.58447,-3.55234 -3.88244,-8.65041 -3.88244,-15.30858 0,-6.64586 1.29797,-11.74393 3.88244,-15.29391 2.59119,-3.5562 6.83612,-5.33017 12.74298,-5.33017 5.9054,0 10.21118,1.86286 12.94409,5.59888 2.44935,3.3818 3.67646,8.37934 3.67646,15.0252 0,6.65817 -1.22711,11.66229 -3.67646,15.03683 -2.73291,3.72928 -7.03869,5.60294 -12.94409,5.60294 -5.90686,0 -10.15179,-1.77667 -12.74298,-5.33119 z m 57.83447,25.78743 c 8.89667,-5.00429 15.07544,-12.06931 18.5279,-21.1662 2.36047,-6.28084 3.55316,-14.29636 3.55316,-24.03726 0,-17.74392 -6.77185,-30.67382 -20.31201,-38.781603 -11.16822,-6.727158 -26.79712,-10.096642 -46.8703,-10.096642 -20.07001,0 -35.6955,3.369484 -46.87036,10.096642 -13.53205,8.203243 -20.2923,21.125903 -20.2923,38.781603 0,9.56549 1.22058,17.57762 3.67499,24.03726 3.53985,9.2789 9.71692,16.38911 18.52978,21.30536 10.81232,6.00168 25.78894,9.01289 44.95789,9.01289 19.16723,0 34.20306,-3.05404 45.10125,-9.15205 z"
         class="st1"
         style="fill:#dd0000" />
      <g
         id="g4505">
        <polygon
           id="polygon4497"
           points="108.9752,36.845806 189.59079,78.443634 28.346456,78.443634 "
           class="st1"
           style="fill:#dd0000" />
        <rect
           id="rect4499"
           height="26.362289"
           width="109.20575"
           class="st2"
           y="90.140511"
           x="54.181629"
           style="fill:#009955" />
        <rect
           id="rect4501"
           height="26.355711"
           width="108.97348"
           class="st2"
           y="125.68606"
           x="54.413898"
           style="fill:#009955" />
        <rect
           id="rect4503"
           height="26.362289"
           width="109.20575"
           class="st2"
           y="160.19728"
           x="54.181629"
           style="fill:#009955" />
      </g>
    </g>
  </g>
</svg>
