<svg id="bf60efd6-66dd-4768-aa1f-d07be6dcc5cc" data-name="Layer 1" xmlns="http://www.w3.org/2000/svg" xmlns:xlink="http://www.w3.org/1999/xlink" viewBox="0 0 67 64"><defs>
<style>.f0fc2dac-aa62-486e-891a-b6850f070fbb{fill:#fff;}.b5b61ae8-aad7-48d6-8748-4c370df22a6e{fill:url(#b5e0c793-7c07-4a24-908c-0d42227a28dd);}.f9786c5f-ce84-4646-8775-333c16613c41{fill:url(#ff41081b-b8d7-477c-ad15-9b592e423639);}</style>
<radialGradient id="b5e0c793-7c07-4a24-908c-0d42227a28dd" cx="-909.91" cy="564.14" r="0.68" gradientTransform="matrix(59.25, 0, 0, -59.25, 53941.5, 33444.43)" gradientUnits="userSpaceOnUse"><stop offset="0" stop-color="#fdf7b6"/><stop offset="0.12" stop-color="#fdf5a2"/><stop offset="0.36" stop-color="#fdf16f"/><stop offset="0.49" stop-color="#fdef51"/><stop offset="0.82" stop-color="#e9bf32"/><stop offset="1" stop-color="#e0ab25"/></radialGradient><radialGradient id="ff41081b-b8d7-477c-ad15-9b592e423639" cx="-905.09" cy="561.69" r="1.01" gradientTransform="matrix(45.07, 0, 0, -45.07, 40816.36, 25322.3)" gradientUnits="userSpaceOnUse"><stop offset="0" stop-color="#25b254"/><stop offset="0.99" stop-color="#005830"/><stop offset="1" stop-color="#005830"/></radialGradient></defs><g id="bf9fb28a-64e6-4d2a-bd28-75cc23103cc8" data-name="Design"><g id="b713b7cb-b587-45da-9bf3-b4feb28daefe" data-name="IKI-Landing-Desktop-visas-pilnas"><g id="b34a5556-68f8-42d4-83d7-0f227d7b21c7" data-name="Group"><g id="f4a70bbb-98af-4a06-90fa-81bcf15e9839" data-name="iki-logo"><path id="be940922-d7b9-4ed8-bb57-cc8b9e21da0f" data-name="Path" class="f0fc2dac-aa62-486e-891a-b6850f070fbb" d="M55.58,4.81A4.91,4.91,0,0,0,51.75,9c-.17,1.92-.45,6-.45,6L38.71,2.38a8.05,8.05,0,0,0-11.48.05l-10.81,11S8.48,15.15,6.29,15.66a4.88,4.88,0,0,0-3.84,4.12C2.29,21.7,0,52.45,0,52.45l9.38-2.07a7.34,7.34,0,0,0,4.34-2.79L27.51,61.37a8.08,8.08,0,0,0,11.47,0S62.68,37.2,62.92,36.9h0c1.11-1.22,1.59-2.76,1.81-5.09,0-.56,2.21-29.47,2.21-29.47s-9.16,2-11.36,2.48"/><path id="beb0e175-1ce6-4d7e-939e-512af277d1c2" data-name="Path" class="b5b61ae8-aad7-48d6-8748-4c370df22a6e" d="M28.67,3.85,5.27,27.65a6.17,6.17,0,0,0,0,8.69L28.93,59.93a6.09,6.09,0,0,0,8.65,0L61,36.08a6.16,6.16,0,0,0,0-8.7L37.31,3.8a6.06,6.06,0,0,0-8.64,0"/><path id="a5128fd4-670f-48ff-ae44-a141b5540360" data-name="Shape" class="f9786c5f-ce84-4646-8775-333c16613c41" d="M8.12,26.55c-2.06.48-4.33,2.27-4.55,4.53-.43,4.39-1.38,18.83-1.38,18.83L9,48.41a5.86,5.86,0,0,0,4.45-5.51c.09-1,.16-2.32.23-3.34.16-2.23,1.1-14.48,1.1-14.48L8.12,26.54M6.75,17.6a3,3,0,0,0-2.29,2.34c-.16,1.94-.37,4.91-.37,4.91s7.2-1.61,8.32-1.82c2.07-.38,2.61-1.26,2.71-2.69.17-2.44.34-4.66.34-4.66s-6.5,1.4-8.7,1.91m50.67-1.87c-2.06.47-4.26,2-4.48,4.26-.43,4.38-1.45,19.1-1.45,19.1l6.78-1.5a5.28,5.28,0,0,0,3.21-2.12,6.06,6.06,0,0,0,1.23-3.62c.08-1,.14-2.17.21-3.11C63.09,26.5,64,14.25,64,14.25L57.4,15.71M23.81,13.86a4.85,4.85,0,0,0-2.94,2.05,6.08,6.08,0,0,0-.78,3.35c-.18,2.43-.41,4.86-.58,7.28-.46,6.61-1,13.29-1.47,19.9L29,44l.83-11c.67,1.17,1.5,2.59,2.4,4.14s1.38,3.24,2.67,4.34,3.19.49,4.9.12l8.48-1.88L41.19,29,49.6,17.43l-6.19,1.36-4.35.95a6.55,6.55,0,0,0-3.65,2.88L33.09,26l-3,4.47,1.39-18.33s-6.55,1.39-7.64,1.68M56.05,6.77a3,3,0,0,0-2.3,2.34c-.16,1.94-.37,4.92-.37,4.92s7.2-1.62,8.32-1.83c2.07-.38,2.61-1.26,2.71-2.68.17-2.45.34-4.68.34-4.68s-6.5,1.4-8.7,1.91"/></g></g></g></g></svg>